<svg width="99" height="98" viewBox="0 0 99 98" fill="none" xmlns="http://www.w3.org/2000/svg">
<circle cx="49.47" cy="49.0451" r="48.5625" fill="#EBFFF6"/>
<g filter="url(#filter0_d)">
<path d="M35.4147 64.0101L20.6868 35.4865L19.9979 33.9937C19.6552 33.2514 20.0205 32.3747 20.7889 32.0953C21.3809 31.88 22.0437 32.0875 22.4073 32.6018L31.882 46.0052C36.7483 52.8891 45.2567 56.1994 53.4957 54.4143L63.8461 52.1717C65.4187 51.831 67.0474 52.4222 68.0352 53.6923C68.9496 54.8679 69.1702 56.4409 68.6145 57.8226L62.2727 73.5914C61.7078 74.9961 60.3457 75.9164 58.8317 75.9164H58.6044C56.2269 75.9164 54.5251 73.6196 55.2173 71.345C55.9917 68.8007 53.789 66.3428 51.1753 66.8348L43.9781 68.1896C40.5137 68.8417 37.0321 67.1425 35.4147 64.0101Z" fill="#55A479"/>
<path d="M71.7213 70.6142L69.2021 65.991C68.7025 65.074 68.6691 63.9739 69.1124 63.0283C70.2261 60.6524 73.5396 60.48 74.8939 62.7273L75.9189 64.4282L78.1015 67.702C78.9128 68.919 78.8732 70.5142 78.0027 71.6895C76.5646 73.6309 73.6316 73.5434 72.3118 71.5197L71.7213 70.6142Z" fill="#55A479"/>
<path d="M54.3652 44.1715L58.4921 43.1178C60.1831 42.6861 61.9027 43.712 62.326 45.4052C62.7537 47.1159 61.6933 48.8444 59.9745 49.2383L49.0453 51.7429C44.7499 52.7273 40.2964 50.9288 37.8891 47.2377L36.6289 45.3053C35.7645 43.9799 35.5177 42.3447 35.9524 40.8233L36.0247 40.5701C36.3881 39.2985 37.2556 38.2307 38.4259 37.6148C39.8981 36.8399 41.665 36.8749 43.1054 37.7074L43.5059 37.9389C44.2353 38.3605 44.8618 38.939 45.34 39.6325L46.389 41.1536C46.9272 41.9341 47.6205 42.6132 48.409 43.1396C50.152 44.3032 52.3346 44.69 54.3652 44.1715Z" fill="#55A479"/>
<path d="M28.9936 27.4716L29.1023 27.3304C29.7306 26.5136 30.5996 25.9149 31.5867 25.6187C32.045 25.4812 32.521 25.4114 32.9995 25.4114H34.0707C34.4937 25.4114 34.9149 25.4678 35.3231 25.5791C36.4893 25.8972 37.4909 26.6471 38.1244 27.6766L38.2053 27.808C38.6632 28.5522 38.9057 29.4089 38.9057 30.2828C38.9057 31.2807 38.5895 32.253 38.0026 33.0601L37.3724 33.9266C37.2166 34.1409 37.0442 34.3426 36.8568 34.53C35.9054 35.4814 34.615 36.0159 33.2694 36.0159H33.0871C32.5505 36.0159 32.0168 35.9376 31.5028 35.7834L31.2009 35.6928C30.4577 35.4699 29.7814 35.0659 29.2327 34.5172C28.3533 33.6379 27.8593 32.4452 27.8593 31.2016V30.8066C27.8593 29.6003 28.2581 28.4278 28.9936 27.4716Z" fill="#55A479"/>
</g>
<defs>
<filter id="filter0_d" x="17.8688" y="25.4114" width="66.815" height="58.5049" filterUnits="userSpaceOnUse" color-interpolation-filters="sRGB">
<feFlood flood-opacity="0" result="BackgroundImageFix"/>
<feColorMatrix in="SourceAlpha" type="matrix" values="0 0 0 0 0 0 0 0 0 0 0 0 0 0 0 0 0 0 127 0"/>
<feOffset dx="2" dy="4"/>
<feGaussianBlur stdDeviation="2"/>
<feColorMatrix type="matrix" values="0 0 0 0 0 0 0 0 0 0 0 0 0 0 0 0 0 0 0.5 0"/>
<feBlend mode="normal" in2="BackgroundImageFix" result="effect1_dropShadow"/>
<feBlend mode="normal" in="SourceGraphic" in2="effect1_dropShadow" result="shape"/>
</filter>
</defs>
</svg>
