<svg width="99" height="98" viewBox="0 0 99 98" fill="none" xmlns="http://www.w3.org/2000/svg">
<circle cx="49.5587" cy="49.0459" r="48.5625" fill="#FEF7E6"/>
<g filter="url(#filter0_d)">
<path d="M54.7495 43.7256L34.2501 48.182C32.5786 48.5453 30.8711 47.7431 30.0837 46.2246C28.9548 44.0474 30.1616 41.3877 32.5435 40.8034L40.3496 38.8887C40.9661 38.7375 41.6169 38.8242 42.1724 39.1314C42.6015 39.3688 43.0905 39.4761 43.5797 39.44L52.7767 38.7616C53.7416 38.6904 54.6786 38.4054 55.5197 37.9271L56.7333 37.2369C56.9289 37.1257 57.092 36.9651 57.2062 36.7712C57.7348 35.8735 57.0337 34.7524 55.9952 34.8348L49.6545 35.338C48.8112 35.4049 48.0096 34.9614 47.6183 34.2114C46.9691 32.9671 47.694 31.4476 49.0697 31.1694L58.3647 29.2895C59.9143 28.9761 61.5184 29.0656 63.0235 29.5494L68.6124 31.3458C69.396 31.5976 70.2097 31.7437 71.0319 31.7802C74.0223 31.9127 76.7634 33.485 78.3876 35.9993L79.7353 38.0856C80.8075 39.7454 81.3779 41.6795 81.3779 43.6556C81.3779 47.5528 79.1711 51.1139 75.6811 52.8483L68.0124 56.6594L59.433 60.7009L46.5966 65.9856C45.7732 66.3246 44.8258 66.1136 44.2241 65.4572C43.3066 64.4563 43.552 62.8631 44.7283 62.1847L61.3432 52.6017L40.6975 62.3574C39.3828 62.9786 37.8172 62.3546 37.2901 60.9994C36.8327 59.8233 37.321 58.4904 38.4299 57.888L57.0319 47.7833L38.0474 55.6004C36.6211 56.1877 34.9875 55.5207 34.3799 54.1029C33.7374 52.6038 34.4962 50.8738 36.0342 50.331L54.7495 43.7256Z" fill="#F49D31" stroke="black" stroke-opacity="0.28"/>
<path d="M33.4871 66.7362L16.7057 44.1371C15.5445 42.5735 14.9176 40.6776 14.9176 38.73C14.9176 37.0434 15.3879 35.3902 16.2756 33.9562L17.0169 32.7587C17.8101 31.4775 18.8046 30.3324 19.9623 29.3677L20.8918 28.5932C22.1404 27.5526 23.5621 26.7392 25.0919 26.19L27.8277 25.2079C30.8225 24.1329 34.1637 24.7429 36.5855 26.8069C37.1385 27.2782 37.7474 27.6799 38.3984 28.0029L51.3395 34.4233L54.066 35.7928C55.218 36.3715 55.8324 37.6564 55.5597 38.9164C55.1525 40.7972 53.0256 41.73 51.3662 40.7555L48.3933 39.0097L45.512 37.391C43.7366 36.1991 42.0339 38.2043 43.5302 39.732C50.5451 46.8941 58.4024 54.6575 58.7911 54.9166C59.1919 55.1838 59.5047 56.4554 59.6716 57.4858C59.7989 58.2716 59.4872 59.0391 58.9243 59.6019C58.5077 60.0185 57.9756 60.304 57.398 60.4195C56.3737 60.6243 55.3169 60.2787 54.6117 59.5082L42.0532 45.7869L54.7832 61.8172C55.3797 62.5684 55.528 63.5816 55.1717 64.4723C54.8925 65.1702 54.3323 65.7184 53.6284 65.9824L53.583 65.9994C53.0131 66.2131 52.389 66.2341 51.8061 66.0593L51.3631 65.9263C50.5839 65.6926 49.8905 65.2353 49.3688 64.6111L35.9667 48.5765L47.8757 64.8602C48.212 65.3201 48.3933 65.8813 48.3933 66.4511C48.3933 67.457 47.825 68.3882 46.9253 68.8381C46.5565 69.0225 46.1499 69.1185 45.7376 69.1185H45.4681C44.2759 69.1185 43.1529 68.5586 42.4354 67.6065L30.3875 51.6198L38.7049 64.6901C39.0616 65.2506 39.1723 65.933 39.0112 66.5775C38.8486 67.2278 38.4238 67.7816 37.8379 68.1071L37.7773 68.1408C36.9708 68.5888 35.9865 68.5724 35.1954 68.0977L34.5862 67.7322C34.1582 67.4754 33.7848 67.137 33.4871 66.7362Z" fill="#F49D31" stroke="black" stroke-opacity="0.28"/>
</g>
<defs>
<filter id="filter0_d" x="12.4176" y="24.1858" width="75.4603" height="53.4327" filterUnits="userSpaceOnUse" color-interpolation-filters="sRGB">
<feFlood flood-opacity="0" result="BackgroundImageFix"/>
<feColorMatrix in="SourceAlpha" type="matrix" values="0 0 0 0 0 0 0 0 0 0 0 0 0 0 0 0 0 0 127 0"/>
<feOffset dx="2" dy="4"/>
<feGaussianBlur stdDeviation="2"/>
<feColorMatrix type="matrix" values="0 0 0 0 0 0 0 0 0 0 0 0 0 0 0 0 0 0 0.5 0"/>
<feBlend mode="normal" in2="BackgroundImageFix" result="effect1_dropShadow"/>
<feBlend mode="normal" in="SourceGraphic" in2="effect1_dropShadow" result="shape"/>
</filter>
</defs>
</svg>
