<svg width="107" height="106" viewBox="0 0 107 106" fill="none" xmlns="http://www.w3.org/2000/svg">
<g filter="url(#filter0_d)">
<circle cx="53.5587" cy="49.0459" r="48.5625" fill="#FEF7E6"/>
<g filter="url(#filter1_d)">
<path d="M58.7495 43.7256L38.2501 48.182C36.5786 48.5453 34.8711 47.7431 34.0837 46.2246C32.9548 44.0474 34.1616 41.3877 36.5435 40.8034L44.3496 38.8887C44.9661 38.7375 45.6169 38.8242 46.1724 39.1314C46.6015 39.3688 47.0905 39.4761 47.5797 39.44L56.7767 38.7616C57.7416 38.6904 58.6786 38.4054 59.5197 37.9271L60.7333 37.2369C60.9289 37.1257 61.092 36.9651 61.2062 36.7712C61.7348 35.8735 61.0337 34.7524 59.9952 34.8348L53.6545 35.338C52.8112 35.4049 52.0096 34.9614 51.6183 34.2114C50.9691 32.9671 51.694 31.4476 53.0697 31.1694L62.3647 29.2895C63.9143 28.9761 65.5184 29.0656 67.0235 29.5494L72.6124 31.3458C73.396 31.5976 74.2097 31.7437 75.0319 31.7802C78.0223 31.9127 80.7634 33.485 82.3876 35.9993L83.7353 38.0856C84.8075 39.7454 85.3779 41.6795 85.3779 43.6556C85.3779 47.5528 83.1711 51.1139 79.6811 52.8483L72.0124 56.6594L63.433 60.7009L50.5966 65.9856C49.7732 66.3246 48.8258 66.1136 48.2241 65.4572C47.3066 64.4563 47.552 62.8631 48.7283 62.1847L65.3432 52.6017L44.6975 62.3574C43.3828 62.9786 41.8172 62.3546 41.2901 60.9994C40.8327 59.8233 41.321 58.4904 42.4299 57.888L61.0319 47.7833L42.0474 55.6004C40.6211 56.1877 38.9875 55.5207 38.3799 54.1029C37.7374 52.6038 38.4962 50.8738 40.0342 50.331L58.7495 43.7256Z" fill="#F49D31" stroke="black" stroke-opacity="0.28"/>
<path d="M37.4871 66.7362L20.7057 44.1371C19.5445 42.5735 18.9176 40.6776 18.9176 38.73C18.9176 37.0434 19.3879 35.3902 20.2756 33.9562L21.0169 32.7587C21.8101 31.4775 22.8046 30.3324 23.9623 29.3677L24.8918 28.5932C26.1404 27.5526 27.5621 26.7392 29.0919 26.19L31.8277 25.2079C34.8225 24.1329 38.1637 24.7429 40.5855 26.8069C41.1385 27.2782 41.7474 27.6799 42.3984 28.0029L55.3395 34.4233L58.066 35.7928C59.218 36.3715 59.8324 37.6564 59.5597 38.9164C59.1525 40.7972 57.0256 41.73 55.3662 40.7555L52.3933 39.0097L49.512 37.391C47.7366 36.1991 46.0339 38.2043 47.5302 39.732C54.5451 46.8941 62.4024 54.6575 62.7911 54.9166C63.1919 55.1838 63.5047 56.4554 63.6716 57.4858C63.7989 58.2716 63.4872 59.0391 62.9243 59.6019C62.5077 60.0185 61.9756 60.304 61.398 60.4195C60.3737 60.6243 59.3169 60.2787 58.6117 59.5082L46.0532 45.7869L58.7832 61.8172C59.3797 62.5684 59.528 63.5816 59.1717 64.4723C58.8925 65.1702 58.3323 65.7184 57.6284 65.9824L57.583 65.9994C57.0131 66.2131 56.389 66.2341 55.8061 66.0593L55.3631 65.9263C54.5839 65.6926 53.8905 65.2353 53.3688 64.6111L39.9667 48.5765L51.8757 64.8602C52.212 65.3201 52.3933 65.8813 52.3933 66.4511C52.3933 67.457 51.825 68.3882 50.9253 68.8381C50.5565 69.0225 50.1499 69.1185 49.7376 69.1185H49.4681C48.2759 69.1185 47.1529 68.5586 46.4354 67.6065L34.3875 51.6198L42.7049 64.6901C43.0616 65.2506 43.1723 65.933 43.0112 66.5775C42.8486 67.2278 42.4238 67.7816 41.8379 68.1071L41.7773 68.1408C40.9708 68.5888 39.9865 68.5724 39.1954 68.0977L38.5862 67.7322C38.1582 67.4754 37.7848 67.137 37.4871 66.7362Z" fill="#F49D31" stroke="black" stroke-opacity="0.28"/>
</g>
</g>
<defs>
<filter id="filter0_d" x="0.996216" y="0.483398" width="105.125" height="105.125" filterUnits="userSpaceOnUse" color-interpolation-filters="sRGB">
<feFlood flood-opacity="0" result="BackgroundImageFix"/>
<feColorMatrix in="SourceAlpha" type="matrix" values="0 0 0 0 0 0 0 0 0 0 0 0 0 0 0 0 0 0 127 0"/>
<feOffset dy="4"/>
<feGaussianBlur stdDeviation="2"/>
<feColorMatrix type="matrix" values="0 0 0 0 0 0 0 0 0 0 0 0 0 0 0 0 0 0 0.25 0"/>
<feBlend mode="normal" in2="BackgroundImageFix" result="effect1_dropShadow"/>
<feBlend mode="normal" in="SourceGraphic" in2="effect1_dropShadow" result="shape"/>
</filter>
<filter id="filter1_d" x="16.4176" y="24.1858" width="75.4603" height="53.4327" filterUnits="userSpaceOnUse" color-interpolation-filters="sRGB">
<feFlood flood-opacity="0" result="BackgroundImageFix"/>
<feColorMatrix in="SourceAlpha" type="matrix" values="0 0 0 0 0 0 0 0 0 0 0 0 0 0 0 0 0 0 127 0"/>
<feOffset dx="2" dy="4"/>
<feGaussianBlur stdDeviation="2"/>
<feColorMatrix type="matrix" values="0 0 0 0 0 0 0 0 0 0 0 0 0 0 0 0 0 0 0.5 0"/>
<feBlend mode="normal" in2="BackgroundImageFix" result="effect1_dropShadow"/>
<feBlend mode="normal" in="SourceGraphic" in2="effect1_dropShadow" result="shape"/>
</filter>
</defs>
</svg>
