<svg width="378" height="330" viewBox="0 0 378 330" fill="none" xmlns="http://www.w3.org/2000/svg">
<g filter="url(#filter0_d)">
<path d="M202.672 270.462L208.962 266.968H215.95L227.831 273.956L235.518 283.74L239.712 293.525L240.411 305.405L236.916 310.297L232.723 313.093H225.035L217.348 310.297L207.564 301.911L202.672 294.922L199.177 285.837V276.752L202.672 270.462Z" fill="#272B2A"/>
<path d="M205.467 282.343L209.66 275.354L218.047 273.956L227.132 280.945L234.121 291.428V301.212L228.53 306.803H220.143L209.66 297.718L205.467 290.03V282.343Z" fill="#BBC5C4"/>
<path d="M213.854 279.547H218.746L224.337 284.439L228.53 288.632L229.928 297.019L228.53 302.61H222.24L213.854 297.019L209.66 288.632V283.041L213.854 279.547Z" fill="#E3E3E3"/>
<path d="M216.649 267.666L208.962 266.968L218.746 260.678L222.939 262.075L237.615 277.451L241.808 291.428L243.206 306.104L236.217 310.996L240.411 304.706L238.314 291.428L234.82 283.042L226.433 273.257L216.649 267.666Z" fill="#000201"/>
<g filter="url(#filter1_d)">
<path d="M201.274 263.473L198.479 278.848L202.672 270.462L209.66 266.968L218.746 260.678L213.854 259.28H208.263L201.274 263.473Z" fill="#373737"/>
</g>
<path d="M192.189 277.45L198.479 278.848L200.575 269.763L202.672 263.473L208.263 259.28L217.348 260.678L222.939 262.075L236.217 276.752L241.109 289.331L242.507 305.405L262.774 317.985H272.559L363.411 266.967L369.701 260.678V233.422L366.906 230.626L272.559 285.837L262.774 289.331L241.109 276.752L240.411 271.161L234.82 262.075L218.746 251.592H212.456H202.672L198.479 255.786L192.888 262.075L192.189 277.45Z" fill="#42484E"/>
<path d="M304.008 286.536V272.558L340.349 251.592V265.57L304.008 286.536Z" fill="#868E91"/>
<path d="M361.315 257.183L274.655 306.803L280.945 310.996L352.928 269.064L361.315 262.774V257.183Z" fill="#313236"/>
<path d="M259.979 269.064L263.473 261.377H275.354H283.041L285.837 262.774L290.729 266.968L294.223 273.257L272.558 285.837L262.774 289.331L257.882 286.536V277.451L259.979 269.064Z" fill="#EDE3E2"/>
<path d="M345.94 226.433L281.644 260.678L287.934 264.871L344.542 233.422L345.94 226.433Z" fill="#5A3E41"/>
<path d="M344.542 233.422L287.934 264.871L290.03 266.968L344.542 236.217V233.422Z" fill="#2C3034"/>
<path d="M344.542 236.217L290.03 266.967L292.127 269.763L344.542 239.013V236.217Z" fill="#434945"/>
<path d="M344.542 239.013L292.127 269.763L294.223 273.257L344.542 243.905V239.013Z" fill="#2C3031"/>
<path d="M344.542 234.121V243.206L366.906 231.325L367.605 224.337L366.906 218.047L364.809 212.456L359.917 207.564L353.627 212.456L350.133 218.047L346.638 225.035L344.542 234.121Z" fill="#E9E5E6"/>
<path d="M257.882 277.451V286.536L241.109 277.451L240.411 271.86L235.518 264.871L224.337 256.485L217.348 251.592H209.66H202.672L197.081 259.28L193.586 266.968L192.189 277.451L190.092 275.354V262.774L193.586 254.388L197.081 249.496L202.672 247.399H208.263H217.348V230.626H223.638L222.939 222.939L224.337 216.649L262.774 262.075L260.678 268.365L257.882 277.451Z" fill="#0228AF"/>
<path d="M193.586 215.95H199.177V214.552V213.155H198.478L193.586 211.757L185.899 200.575L176.814 194.984L163.535 187.297V149.558H161.438V190.092L178.91 200.575L185.899 206.865L193.586 215.95Z" fill="#232F3D"/>
<path d="M163.535 187.995L162.836 149.558H166.331L178.211 156.546L193.586 166.331L194.984 168.427L206.865 191.49L214.552 205.467V222.939L211.757 221.541L210.359 219.445V201.973H208.263L199.177 204.768V213.155H198.478L193.586 211.757L184.501 199.876L163.535 187.995Z" fill="#BBCACE"/>
<path d="M199.177 224.337V204.768L207.564 201.973H210.359V219.444L212.456 221.541L214.552 222.939V226.433H210.359L206.865 224.337H201.973H199.177Z" fill="#25392D"/>
<path d="M216.649 229.229L214.552 226.433V208.263V207.564V205.467L223.638 221.541V230.626H219.445L216.649 229.229Z" fill="#232F3D"/>
<path d="M220.143 231.325L214.552 226.433H210.359L206.865 224.337H199.177V215.95H194.285L183.802 203.371L174.018 197.081L161.438 190.092V149.558H166.331L192.888 167.029L208.263 195.683L222.939 220.842L225.035 224.337L225.734 213.854L210.359 185.2L200.575 168.427L192.888 157.944L181.007 150.956L156.546 136.279L155.149 255.087L190.092 275.354L191.49 261.377L194.285 253.689L201.274 248.098L219.445 248.797L220.143 231.325Z" fill="#0228AF"/>
<path d="M156.546 237.615V234.121L185.899 251.592V254.388L156.546 237.615Z" fill="#623F43"/>
<path d="M155.848 136.279L154.45 255.087L79.6709 211.757V190.791L74.08 178.91L64.9947 166.331L55.9094 159.342L45.4264 155.149H34.2445L24.4604 163.535L5.59094 152.353L6.98868 109.023V90.154L11.1819 67.7902L14.6762 55.9095L155.848 136.279Z" fill="#0228AF"/>
<path d="M90.8528 196.382V199.177L153.052 235.518V232.723L90.8528 196.382Z" fill="#623F43"/>
<path d="M161.438 201.973V197.081L170.524 201.973V206.865L161.438 201.973Z" fill="#663A31"/>
<path d="M158.643 232.723L156.546 234.82L185.899 251.592L187.297 249.496L158.643 232.723Z" fill="#B7797C"/>
<path d="M90.8528 196.382L153.052 232.723L154.45 230.626L92.9494 194.984L90.8528 196.382Z" fill="#B7797C"/>
<path d="M71.9834 193.586L75.4777 208.961V211.757H79.6709V189.393L74.08 178.211L65.6936 165.632L58.006 160.041L46.1253 155.149H32.8468L24.4604 163.535L5.59094 151.654V145.365L0 150.257V164.933L29.3524 181.007H31.4491L32.8468 172.62L40.5343 163.535H50.3185L61.5004 172.62L67.7902 183.103L71.9834 193.586Z" fill="#47484A"/>
<path d="M32.8468 172.62L31.4491 181.007L34.2446 175.416L39.8355 171.921L46.1253 167.029L51.0174 163.535H40.5344L32.8468 172.62Z" fill="#383733"/>
<path d="M46.1253 171.921L39.8354 171.223L50.3185 163.535L61.5004 171.921L64.9947 177.512L70.5856 187.297L74.08 197.081L76.1766 211.757L68.489 214.552L69.1879 208.263V197.78L61.5004 183.103L51.7162 174.717L46.1253 171.921Z" fill="#050503"/>
<path d="M32.8468 176.115L39.8355 171.223L48.9208 171.922L53.8129 174.717L62.1993 181.007L69.188 193.586L71.9834 201.973L69.188 213.854L67.0914 216.649L57.3072 218.746L48.9208 215.251L41.2332 208.263L34.9434 199.177L31.4491 189.393L32.8468 176.115Z" fill="#2F2F2F"/>
<path d="M37.04 185.899L41.9321 178.91H50.3185C52.881 180.774 58.1458 184.641 58.7049 185.2C59.264 185.759 63.1311 191.024 64.9948 193.586V204.069C64.0629 206.399 61.9197 211.058 60.8015 211.058H54.5117L45.4265 205.467C43.5628 202.439 39.6957 196.242 39.1366 195.683C38.5775 195.124 37.506 188.927 37.04 185.899Z" fill="#AEB7B6"/>
<path d="M41.9321 187.297L45.4265 183.802H50.3185L53.8129 185.899C55.9095 188.228 60.1027 193.027 60.1027 193.586C60.1027 194.145 61.9663 199.41 62.8982 201.973C61.5004 203.836 58.5652 207.564 58.0061 207.564C57.3072 207.564 52.4151 206.166 51.7163 206.166C51.1572 206.166 47.2901 202.439 45.4265 200.575L41.9321 194.984V187.297Z" fill="#E1E5E4"/>
<path d="M194.984 160.74L193.586 159.342L190.791 157.245L283.74 100.637L292.826 111.12L321.479 164.234L358.519 204.069L359.917 207.564L352.928 213.155L350.133 218.047L345.94 226.433L285.837 259.979L283.041 261.377L262.774 262.075L225.035 218.047V213.854L202.672 173.319L194.984 160.74Z" fill="#0055F9"/>
<path d="M217.348 189.393L207.564 169.126V164.933L215.251 159.342L282.343 122.302L289.331 117.41L292.826 120.904L312.394 159.342L319.383 169.126L317.286 176.115L241.808 218.746H236.916L232.723 216.649L227.831 207.564L217.348 189.393Z" fill="#BBCACE"/>
<path d="M236.217 215.95L234.121 215.251L257.183 204.768L262.774 202.672H269.064L266.269 204.768H262.075L238.314 215.95H236.217Z" fill="#1F3E41"/>
<path d="M304.007 181.007L265.57 199.177L262.774 198.478L302.61 178.211H305.405L310.297 179.609L308.201 181.007H304.007Z" fill="#1F342B"/>
<path d="M43 110.5V70.5L67 85V121L100.5 165L92.5 136L99 104L115.5 113.5L106.5 142L115.5 171L204.5 246L92.5 171L67 142L43 110.5Z" fill="white"/>
<path d="M156.546 137.677L155.848 136.978L154.45 255.087H155.149L156.546 137.677Z" fill="black"/>
<path d="M283.74 100.637L190.791 157.245L14.6763 55.9094L109.722 0L283.74 100.637Z" fill="#0454EF"/>
</g>
<defs>
<filter id="filter0_d" x="0" y="0" width="377.701" height="329.985" filterUnits="userSpaceOnUse" color-interpolation-filters="sRGB">
<feFlood flood-opacity="0" result="BackgroundImageFix"/>
<feColorMatrix in="SourceAlpha" type="matrix" values="0 0 0 0 0 0 0 0 0 0 0 0 0 0 0 0 0 0 127 0"/>
<feOffset dx="4" dy="8"/>
<feGaussianBlur stdDeviation="2"/>
<feColorMatrix type="matrix" values="0 0 0 0 0 0 0 0 0 0 0 0 0 0 0 0 0 0 0.35 0"/>
<feBlend mode="normal" in2="BackgroundImageFix" result="effect1_dropShadow"/>
<feBlend mode="normal" in="SourceGraphic" in2="effect1_dropShadow" result="shape"/>
</filter>
<filter id="filter1_d" x="194.479" y="259.28" width="28.2672" height="27.5683" filterUnits="userSpaceOnUse" color-interpolation-filters="sRGB">
<feFlood flood-opacity="0" result="BackgroundImageFix"/>
<feColorMatrix in="SourceAlpha" type="matrix" values="0 0 0 0 0 0 0 0 0 0 0 0 0 0 0 0 0 0 127 0"/>
<feOffset dy="4"/>
<feGaussianBlur stdDeviation="2"/>
<feColorMatrix type="matrix" values="0 0 0 0 0 0 0 0 0 0 0 0 0 0 0 0 0 0 0.25 0"/>
<feBlend mode="normal" in2="BackgroundImageFix" result="effect1_dropShadow"/>
<feBlend mode="normal" in="SourceGraphic" in2="effect1_dropShadow" result="shape"/>
</filter>
</defs>
</svg>
