<svg width="98" height="98" viewBox="0 0 98 98" fill="none" xmlns="http://www.w3.org/2000/svg">
<circle cx="48.7937" cy="48.9875" r="48.5625" fill="#FFEBF0"/>
<g filter="url(#filter0_d)">
<path d="M29.7915 64.5889L32.9606 67.7579C34.5115 69.3088 34.5115 71.8233 32.9606 73.3742C31.4097 74.9251 28.8952 74.9252 27.3443 73.3743L24.1752 70.2052C22.5888 68.6188 22.6305 66.0342 24.2672 64.4998C25.831 63.0338 28.2759 63.0733 29.7915 64.5889Z" fill="#E5526C"/>
<path d="M38.7387 72.669L37.3601 74.0476C37.2692 74.1385 37.2181 74.2618 37.2181 74.3904C37.2181 74.4952 37.2521 74.5973 37.315 74.6812L37.4355 74.8418C37.6408 75.1155 37.963 75.2766 38.3051 75.2766H38.4455C38.5925 75.2766 38.7386 75.2529 38.878 75.2064L39.1187 75.1262C39.5372 74.9867 39.9187 74.7546 40.235 74.4471L46.0335 68.8097C46.1952 68.6525 46.3397 68.4787 46.4647 68.2911L46.6194 68.0592C46.8684 67.6856 47.0013 67.2467 47.0013 66.7977V66.3927C47.0013 66.0489 46.8647 65.7191 46.6216 65.476C46.1265 64.9809 46.114 64.1821 46.5934 63.6717L51.3494 58.6089L52.0286 57.8165C52.298 57.5023 52.5038 57.1388 52.6346 56.7461C52.7434 56.4199 52.7988 56.0783 52.7988 55.7345V55.5156C52.7988 54.8095 52.6344 54.1131 52.3187 53.4816L52.262 53.3683C52.0176 52.8794 51.6959 52.4332 51.3095 52.0467L45.3663 46.1036C44.8927 45.6299 44.3153 45.2731 43.6798 45.0613C43.2399 44.9146 42.7791 44.8398 42.3154 44.8398H42.0831C41.1495 44.8398 40.2309 45.0741 39.4113 45.5211C38.9182 45.7901 38.4686 46.132 38.0776 46.5352L33.8309 50.9146C33.3307 51.4304 32.4853 51.367 32.0677 50.7823C31.999 50.6862 31.9161 50.6013 31.8216 50.5304L31.5561 50.3313C31.3505 50.1771 31.1006 50.0938 30.8436 50.0938C30.6284 50.0938 30.4173 50.1523 30.2327 50.263L29.8876 50.4701C29.7025 50.5812 29.5327 50.7136 29.3799 50.8661C27.5035 52.7396 24.0896 56.1146 23.8114 56.2536C23.6487 56.335 23.3641 56.6486 23.0924 56.9828C22.7207 57.4399 22.5432 58.0197 22.5432 58.6089V59.3051C22.5432 59.4412 22.5873 59.5735 22.669 59.6824C22.8925 59.9804 23.3246 60.0198 23.5984 59.7671L25.1056 58.3758C25.328 58.1706 25.586 58.0077 25.867 57.8953L25.8852 57.8881C26.1908 57.7658 26.5169 57.703 26.8461 57.703H27.1492C27.4584 57.703 27.7655 57.7528 28.0588 57.8506C28.4825 57.9918 28.8674 58.2297 29.1832 58.5455L38.8609 68.2232C39.0928 68.4551 39.2857 68.7228 39.4324 69.0161L39.4511 69.0536C39.6506 69.4526 39.7545 69.8926 39.7545 70.3387C39.7545 70.7278 39.6754 71.113 39.5221 71.4706L39.4741 71.5828C39.3003 71.9883 39.0507 72.357 38.7387 72.669Z" fill="#E5526C"/>
<path d="M45.246 53.4803L43.9541 52.2345C42.9301 51.2471 41.3039 51.2619 40.298 52.2678C39.2922 53.2736 39.2774 54.8998 40.2648 55.9238L41.5106 57.2157C42.5364 58.2795 44.2353 58.2949 45.2803 57.25C46.3252 56.205 46.3098 54.5061 45.246 53.4803Z" fill="#FFEBF0"/>
<path d="M59.404 52.1772L45.4249 38.3686C45.2687 38.2143 45.1311 38.0386 45.0181 37.8503C44.7766 37.4479 44.6461 36.9824 44.6461 36.513C44.6461 35.8134 44.9292 35.1435 45.431 34.6559L57.5093 22.9178L57.7484 22.6787C58.0593 22.3678 58.481 22.1931 58.9206 22.1931H59.225C59.4044 22.1931 59.5785 22.2542 59.7186 22.3663C60.0864 22.6605 60.1168 23.2091 59.7837 23.5421L58.5438 24.782C58.339 24.9868 58.1736 25.2276 58.056 25.4922L58.0056 25.6057C57.6872 26.3221 57.659 27.1341 57.9269 27.8708L57.9769 28.0083C58.1462 28.4739 58.4155 28.8969 58.7659 29.2473L68.3796 38.8609C68.7419 39.1628 69.6115 39.7667 70.1913 39.7667C70.8982 39.7667 71.5876 39.5458 72.1628 39.1349L72.3532 38.9989C72.4818 38.907 72.6027 38.8047 72.7144 38.6929L73.8213 37.5861C74.0337 37.3736 74.3583 37.321 74.6271 37.4553C74.8021 37.5428 74.9323 37.6998 74.9861 37.8879L75.1056 38.3063C75.2083 38.6658 75.1887 39.0492 75.0499 39.3964L75.0377 39.4269C74.948 39.6511 74.8137 39.8548 74.6429 40.0255L62.5007 52.1677C62.0888 52.5796 61.5301 52.8111 60.9476 52.8111C60.3697 52.8111 59.8151 52.5833 59.404 52.1772Z" fill="#E5526C"/>
<path d="M67.8357 32.8822L64.6659 29.7124C63.1223 28.1688 63.1429 25.6599 64.7116 24.1418C66.2444 22.6585 68.6834 22.6785 70.1917 24.1867L73.3614 27.3564C74.905 28.9 74.8845 31.409 73.3158 32.9271C71.783 34.4104 69.3439 34.3904 67.8357 32.8822Z" fill="#E5526C"/>
</g>
<defs>
<filter id="filter0_d" x="18.5432" y="22.1931" width="60.6273" height="61.0835" filterUnits="userSpaceOnUse" color-interpolation-filters="sRGB">
<feFlood flood-opacity="0" result="BackgroundImageFix"/>
<feColorMatrix in="SourceAlpha" type="matrix" values="0 0 0 0 0 0 0 0 0 0 0 0 0 0 0 0 0 0 127 0"/>
<feOffset dy="4"/>
<feGaussianBlur stdDeviation="2"/>
<feColorMatrix type="matrix" values="0 0 0 0 0 0 0 0 0 0 0 0 0 0 0 0 0 0 0.25 0"/>
<feBlend mode="normal" in2="BackgroundImageFix" result="effect1_dropShadow"/>
<feBlend mode="normal" in="SourceGraphic" in2="effect1_dropShadow" result="shape"/>
</filter>
</defs>
</svg>
