<svg width="122" height="63" viewBox="0 0 122 63" fill="none" xmlns="http://www.w3.org/2000/svg">
<g filter="url(#filter0_d)">
<path d="M59.5859 35.2375L59.4678 31.8573L55.0273 32.0124L55.1453 35.3926L59.5859 35.2375Z" stroke="black"/>
<path d="M34.8553 48.5104L35.6847 43.969L34.5602 40.0598L32.4554 36.373L28.7782 34.8092L24.831 34.947L21.1401 37.7082L19.1529 42.102L19.3693 48.2991L21.6188 51.4169L25.4999 54.1017L28.9537 53.981L32.6708 51.971L34.8553 48.5104Z" fill="#414141"/>
<path d="M31.5075 42.2346L28.9356 39.3161L25.1529 39.4482C24.7582 39.462 23.8304 40.8732 23.4159 41.5771L22.8826 45.1681L23.6257 47.5864L25.9873 49.1961L27.6516 49.702L30.0727 48.3013L31.6518 46.366L31.5075 42.2346Z" fill="#747474"/>
<path d="M28.2969 44.603L27.5932 43.3114L26.3037 44.1085L26.343 45.2353L27.6784 45.7527L28.2969 44.603Z" fill="#161616"/>
<path d="M36.5737 36.4172L36.7901 42.6143L35.6913 44.1568L34.5668 40.2476L32.6265 36.555L28.9361 34.6157L24.8245 34.7593L21.1336 37.5204L19.1529 42.102L17.4951 41.7839L18.318 37.0547L22.5881 32.0171L27.6406 30.5245L33.6335 32.3834L36.5737 36.4172Z" fill="#19161D"/>
<path d="M107.503 44.6573L107.322 39.4512L105.044 34.3094L102.281 31.8663L98.1697 32.0099L93.5653 32.9698L90.3675 39.6081L90.5496 44.8231L95.0165 50.1699C96.4067 50.6854 99.3503 51.6731 100.003 51.4999C100.656 51.3267 103.2 50.3228 104.391 49.8425L107.503 44.6573Z" fill="#414141"/>
<path d="M97.6823 36.9155L99.3269 36.8581L100.478 36.8179L101.662 37.7166L103.221 39.9184L103.635 42.3482L103.056 44.6246L101.951 45.9794L100.174 46.9815L98.0364 47.0562L96.6879 46.1632L94.9711 44.1549L94.57 42.1007L94.8334 40.2113L95.6033 38.6803C95.7612 38.4867 96.1415 38.0598 96.3994 37.9004C96.6573 37.741 97.3621 37.1774 97.6823 36.9155Z" fill="#747474"/>
<path d="M99.8133 41.3534L99.1423 41.0008L98.3331 41.4051L98.2014 42.3498L98.721 43.0838L99.221 43.2543C99.3284 43.1879 99.5763 43.0539 99.7078 43.0493C99.8394 43.0447 100.074 42.5351 100.175 42.2809L99.8133 41.3534Z" fill="#161616"/>
<path d="M106.557 31.717L108.667 39.8394L108.339 40.3037L107.517 40.3324L106.794 38.4775L105.189 34.9612L102.13 32.2477L98.0052 32.0157L94.4198 33.081L91.9195 36.9287L90.7546 41.2938L90.7546 43L89.1952 40.4082L89.8667 39.4446L91.0066 34.3645L93.8549 30.349L99.5184 28.8459L103.341 29.1971L105.06 31.2631L106.557 31.717Z" fill="#19161D"/>
<path d="M99.4741 16.6643L103.326 17.8352L101.456 20.6071L96.0976 19.828L95.333 18.1143L99.4741 16.6643Z" fill="white"/>
<path d="M116.22 39.6296L116.813 33.0282L106.616 33.3843L109.036 41.3846L114.628 41.1893L116.22 39.6296Z" fill="#313131"/>
<path d="M114.715 29.5519L114.839 33.0971L111.55 33.2119L111.426 29.6667L114.715 29.5519Z" fill="#EAEF04"/>
<path d="M114.669 28.2374L114.715 29.5519L111.426 29.6668L111.231 24.0858L113.464 24.4429L114.669 28.2374Z" fill="#EDE3E2"/>
<path d="M111.249 24.5966L111.557 33.4227L106.544 33.5978L103.37 30.0168L99.5336 29.2806L95.3083 30.2297L91.9856 34.1062L89.8733 39.6325L88.6428 42.1197L36.777 42.2387L35.9027 36.0646L33.4691 32.3892L27.4696 30.3425L22.2526 31.8408L18.6338 36.6677L17.699 42.9049L12.7388 42.3261L8.92324 41.5192L8.76586 37.0123L5.96994 37.1099L6.03104 19.998L7.26204 12.8103L8.80885 5.23548L9.91421 3.88075L78.049 2.81756L82.3645 3.79498L84.6998 4.65353L83.5944 6.00826L96.7305 19.0869L101.829 18.9089L103.105 17.7362C105.791 19.2092 111.299 22.2634 111.841 22.6957C112.383 23.128 113.207 24.0895 113.551 24.5162L111.249 24.5966Z" fill="white"/>
<path d="M90.2122 30.4762L94.2216 19.0233L81.5869 6.41115L78.8389 4.10606L67.8981 4.48812L69.1637 40.7317L88.0973 40.0705L88.9789 37.5954L88.8686 34.4392L90.2122 30.4762Z" fill="white"/>
<path d="M37.384 12.5705L33 3.5L27 3.5L34.15 15.0226L41.5835 22.7552L30.6145 18.8497L24.1215 13.0336L19.5 3.73042L13 3.73036L17.5718 15.6015L30.8593 25.8587L51.0091 27.4942L102.756 23.348L46.234 20.8384L37.384 12.5705Z" fill="#0454EF"/>
<path d="M81.4629 6.2707L94.4214 18.9795L71.5082 18.2755L69.8242 17.2062L69.4569 6.68996L71.0688 5.69358L81.4629 6.2707Z" fill="#110E15"/>
<path d="M80.0286 7.63686C80.1602 7.63227 84.5082 11.7422 86.6657 13.7977L87.2313 15.8462L87.2837 17.3485L86.7903 17.3658L71.1136 16.4091L70.7988 7.39512C73.8206 7.47761 79.897 7.64146 80.0286 7.63686Z" fill="#BBCACE"/>
<path d="M89.5802 12.3799L88.7316 11.6574L87.087 11.7149L86.6723 13.9856L87.2181 15.4707L87.2968 17.7242L87.9744 18.2646L89.7638 17.638L89.5802 12.3799Z" fill="#272322"/>
<path d="M69.416 19.6648L70.2383 19.636L71.6 20.9046L71.7508 25.2238L71.1389 26.5613C70.8121 26.6354 70.0586 26.7494 69.6587 26.613C69.2587 26.4765 68.9307 26.1997 68.8167 26.0783L68.6396 21.008L69.416 19.6648Z" fill="#19161D"/>
<path d="M70.9219 25.0647L70.7907 21.3089L70.2711 20.575L69.6263 20.9735L69.7706 25.1049C69.7863 25.5556 70.0096 25.6606 70.1192 25.6568L70.9219 25.0647Z" fill="#414141"/>
<path d="M83.5944 6.00821L95.7136 18.101L99.4477 16.7358L94.3629 12.5889L90.791 9.32926L87.5678 6.62153L84.6998 4.65347L83.5944 6.00821Z" fill="#BBCACE"/>
<path d="M5.65355 42.1974L8.61394 42.094L8.91664 41.3313L8.76581 37.0121L5.47649 37.127L4.20667 38.4875L4.31159 41.4921L5.65355 42.1974Z" fill="#313131"/>
<path d="M11.1639 6.65736L11.059 3.65271L9.74323 3.69866L8.80234 5.04765L6.17588 19.4288L8.80733 19.3369L9.38047 12.1722L11.1639 6.65736Z" fill="#AB0C1E"/>
<path d="M8.60388 13.5154L7.28815 13.5614L6.71554 16.0256L8.68913 15.9567L8.60388 13.5154Z" fill="#EDE3E2"/>
</g>
<defs>
<filter id="filter0_d" x="0.160767" y="0.291199" width="120.934" height="62.0172" filterUnits="userSpaceOnUse" color-interpolation-filters="sRGB">
<feFlood flood-opacity="0" result="BackgroundImageFix"/>
<feColorMatrix in="SourceAlpha" type="matrix" values="0 0 0 0 0 0 0 0 0 0 0 0 0 0 0 0 0 0 127 0"/>
<feOffset dy="4"/>
<feGaussianBlur stdDeviation="2"/>
<feColorMatrix type="matrix" values="0 0 0 0 0 0 0 0 0 0 0 0 0 0 0 0 0 0 0.25 0"/>
<feBlend mode="normal" in2="BackgroundImageFix" result="effect1_dropShadow"/>
<feBlend mode="normal" in="SourceGraphic" in2="effect1_dropShadow" result="shape"/>
</filter>
</defs>
</svg>
