<svg width="286" height="64" viewBox="0 0 286 64" fill="none" xmlns="http://www.w3.org/2000/svg">
<g filter="url(#filter0_d)">
<path d="M223.586 36.2375L223.468 32.8573L219.027 33.0124L219.145 36.3926L223.586 36.2375Z" stroke="black"/>
<path d="M198.855 49.5104L199.685 44.969L198.56 41.0598L196.455 37.373L192.778 35.8092L188.831 35.947L185.14 38.7082L183.153 43.102L183.369 49.2991L185.619 52.4169L189.5 55.1017L192.954 54.981L196.671 52.971L198.855 49.5104Z" fill="#414141"/>
<path d="M195.508 43.2346L192.936 40.3161L189.153 40.4482C188.758 40.462 187.83 41.8732 187.416 42.5771L186.883 46.1681L187.626 48.5864L189.987 50.1961L191.652 50.702L194.073 49.3013L195.652 47.366L195.508 43.2346Z" fill="#747474"/>
<path d="M192.297 45.603L191.593 44.3114L190.304 45.1085L190.343 46.2353L191.678 46.7527L192.297 45.603Z" fill="#161616"/>
<path d="M200.574 37.4172L200.79 43.6143L199.691 45.1568L198.567 41.2476L196.627 37.555L192.936 35.6157L188.824 35.7593L185.134 38.5204L183.153 43.102L181.495 42.7839L182.318 38.0547L186.588 33.0171L191.641 31.5245L197.634 33.3834L200.574 37.4172Z" fill="#19161D"/>
<path d="M271.503 45.6573L271.322 40.4512L269.044 35.3094L266.281 32.8663L262.17 33.0099L257.565 33.9698L254.367 40.6081L254.55 45.8231L259.017 51.1699C260.407 51.6854 263.35 52.6731 264.003 52.4999C264.656 52.3267 267.2 51.3228 268.391 50.8425L271.503 45.6573Z" fill="#414141"/>
<path d="M261.682 37.9155L263.327 37.8581L264.478 37.8179L265.662 38.7166L267.221 40.9184L267.635 43.3482L267.056 45.6246L265.951 46.9794L264.174 47.9815L262.036 48.0562L260.688 47.1632L258.971 45.1549L258.57 43.1007L258.833 41.2113L259.603 39.6803C259.761 39.4867 260.141 39.0598 260.399 38.9004C260.657 38.741 261.362 38.1774 261.682 37.9155Z" fill="#747474"/>
<path d="M263.813 42.3534L263.142 42.0008L262.333 42.4051L262.201 43.3498L262.721 44.0838L263.221 44.2543C263.328 44.1879 263.576 44.0539 263.708 44.0493C263.839 44.0447 264.074 43.5351 264.175 43.2809L263.813 42.3534Z" fill="#161616"/>
<path d="M270.557 32.717L272.667 40.8394L272.339 41.3037L271.517 41.3324L270.794 39.4775L269.189 35.9612L266.13 33.2477L262.005 33.0157L258.42 34.081L255.919 37.9287L254.755 42.2938L254.755 44L253.195 41.4082L253.867 40.4446L255.007 35.3645L257.855 31.349L263.518 29.8459L267.341 30.1971L269.06 32.2631L270.557 32.717Z" fill="#19161D"/>
<path d="M263.474 17.6643L267.326 18.8352L265.456 21.6071L260.098 20.828L259.333 19.1143L263.474 17.6643Z" fill="white"/>
<path d="M280.22 40.6296L280.813 34.0282L270.616 34.3843L273.036 42.3846L278.628 42.1893L280.22 40.6296Z" fill="#313131"/>
<path d="M278.715 30.5519L278.839 34.0971L275.55 34.2119L275.426 30.6667L278.715 30.5519Z" fill="#EAEF04"/>
<path d="M278.669 29.2374L278.715 30.5519L275.426 30.6668L275.231 25.0858L277.464 25.4429L278.669 29.2374Z" fill="#EDE3E2"/>
<path d="M275.249 25.5966L275.557 34.4227L270.544 34.5978L267.37 31.0168L263.534 30.2806L259.308 31.2297L255.986 35.1062L253.873 40.6325L252.643 43.1197L200.777 43.2387L199.903 37.0646L197.469 33.3892L191.47 31.3425L186.253 32.8408L182.634 37.6677L181.699 43.9049L176.739 43.3261L172.923 42.5192L172.766 38.0123L169.97 38.1099L170.031 20.998L171.262 13.8103L172.809 6.23548L173.914 4.88075L242.049 3.81756L246.364 4.79498L248.7 5.65353L247.594 7.00826L260.73 20.0869L265.829 19.9089L267.105 18.7362C269.791 20.2092 275.299 23.2634 275.841 23.6957C276.383 24.128 277.207 25.0895 277.551 25.5162L275.249 25.5966Z" fill="white"/>
<path d="M254.212 31.4762L258.222 20.0233L245.587 7.41115L242.839 5.10606L231.898 5.48812L233.164 41.7317L252.097 41.0705L252.979 38.5954L252.869 35.4392L254.212 31.4762Z" fill="white"/>
<path d="M201.384 13.5705L197 4.5L191 4.5L198.15 16.0226L205.584 23.7552L194.615 19.8497L188.122 14.0336L183.5 4.73042L177 4.73036L181.572 16.6015L194.859 26.8587L215.009 28.4942L266.756 24.348L210.234 21.8384L201.384 13.5705Z" fill="#0454EF"/>
<path d="M245.463 7.2707L258.421 19.9795L235.508 19.2755L233.824 18.2062L233.457 7.68996L235.069 6.69358L245.463 7.2707Z" fill="#110E15"/>
<path d="M244.029 8.63686C244.16 8.63227 248.508 12.7422 250.666 14.7977L251.231 16.8462L251.284 18.3485L250.79 18.3658L235.114 17.4091L234.799 8.39512C237.821 8.47761 243.897 8.64146 244.029 8.63686Z" fill="#BBCACE"/>
<path d="M253.58 13.3799L252.732 12.6574L251.087 12.7149L250.672 14.9856L251.218 16.4707L251.297 18.7242L251.974 19.2646L253.764 18.638L253.58 13.3799Z" fill="#272322"/>
<path d="M233.416 20.6648L234.238 20.636L235.6 21.9046L235.751 26.2238L235.139 27.5613C234.812 27.6354 234.059 27.7494 233.659 27.613C233.259 27.4765 232.931 27.1997 232.817 27.0783L232.64 22.008L233.416 20.6648Z" fill="#19161D"/>
<path d="M234.922 26.0647L234.791 22.3089L234.271 21.575L233.626 21.9735L233.771 26.1049C233.786 26.5556 234.01 26.6606 234.119 26.6568L234.922 26.0647Z" fill="#414141"/>
<path d="M247.594 7.00821L259.714 19.101L263.448 17.7358L258.363 13.5889L254.791 10.3293L251.568 7.62153L248.7 5.65347L247.594 7.00821Z" fill="#BBCACE"/>
<path d="M169.654 43.1974L172.614 43.094L172.917 42.3313L172.766 38.0121L169.476 38.127L168.207 39.4875L168.312 42.4921L169.654 43.1974Z" fill="#313131"/>
<path d="M175.164 7.65736L175.059 4.65271L173.743 4.69866L172.802 6.04765L170.176 20.4288L172.807 20.3369L173.38 13.1722L175.164 7.65736Z" fill="#AB0C1E"/>
<path d="M172.604 14.5154L171.288 14.5614L170.716 17.0256L172.689 16.9567L172.604 14.5154Z" fill="#EDE3E2"/>
</g>
<path d="M103.338 14.288C103.338 10.672 104.506 8.12 106.842 6.632C108.074 5.832 109.586 5.432 111.378 5.432C113.154 5.432 114.826 5.72 116.394 6.296C116.602 6.376 116.714 6.416 116.73 6.416L116.034 8.528C116.018 8.528 115.906 8.504 115.698 8.456C115.506 8.392 115.306 8.336 115.098 8.288C114.906 8.224 114.65 8.16 114.33 8.096C114.01 8.032 113.706 7.976 113.418 7.928C112.778 7.8 112.098 7.736 111.378 7.736C109.586 7.736 108.274 8.24 107.442 9.248C106.626 10.256 106.218 11.952 106.218 14.336C106.218 17.04 106.69 18.848 107.634 19.76C108.114 20.224 108.642 20.544 109.218 20.72C109.794 20.896 110.49 20.984 111.306 20.984C112.794 20.984 114.37 20.688 116.034 20.096L116.73 22.28L116.106 22.472C114.378 23.016 112.602 23.288 110.778 23.288C108.394 23.288 106.554 22.528 105.258 21.008C103.978 19.488 103.338 17.248 103.338 14.288ZM120.141 23L120.933 5.888C122.021 5.68 123.077 5.576 124.101 5.576C124.421 5.576 124.653 5.752 124.797 6.104L129.381 18.632L133.965 6.104C134.109 5.752 134.341 5.576 134.661 5.576C135.813 5.576 136.869 5.68 137.829 5.888L138.621 23H136.005L135.597 8.288L131.205 20.6C129.861 20.824 128.933 20.936 128.421 20.936C127.909 20.936 127.589 20.76 127.461 20.408L123.165 8.288L122.757 23H120.141ZM141.569 23L147.257 6.08C147.385 5.744 147.665 5.576 148.097 5.576C148.273 5.576 149.129 5.624 150.665 5.72L156.401 23H153.593L152.033 17.96H145.961L144.425 23H141.569ZM146.609 15.8H151.361L148.961 8.024V8.168L146.609 15.8ZM27.0925 51V35.88H21.9805V33.72H35.1325L34.7965 35.88H29.8285V51H27.0925ZM34.8531 42.264C34.8531 40.824 34.7091 39.528 34.4211 38.376L36.4371 38.112L37.0371 39.672C38.0451 38.488 39.1811 37.896 40.4451 37.896C41.2931 37.896 41.9491 38.096 42.4131 38.496C42.8931 38.896 43.1331 39.464 43.1331 40.2C43.1331 40.936 43.0131 41.584 42.7731 42.144L40.7091 41.88C40.7091 41.16 40.6371 40.656 40.4931 40.368C40.3651 40.064 40.0851 39.912 39.6531 39.912C39.2371 39.912 38.8211 40.08 38.4051 40.416C38.0051 40.752 37.6851 41.128 37.4451 41.544V51H34.8531V42.264ZM55.3773 38.976V47.952C55.3773 48.512 55.4413 48.888 55.5693 49.08C55.6973 49.256 56.0093 49.344 56.5052 49.344L56.6013 50.856C56.2013 51 55.7773 51.072 55.3293 51.072C54.0813 51.072 53.3373 50.504 53.0973 49.368C52.2493 50.648 50.9933 51.288 49.3293 51.288C47.6813 51.288 46.4493 50.672 45.6333 49.44C44.8333 48.208 44.4333 46.624 44.4333 44.688C44.4333 42.736 44.9853 41.12 46.0893 39.84C47.1933 38.544 48.6733 37.896 50.5293 37.896C51.2813 37.896 52.1533 38.016 53.1453 38.256C54.1533 38.48 54.8973 38.72 55.3773 38.976ZM47.1693 44.88C47.1693 46.432 47.4013 47.552 47.8653 48.24C48.3453 48.928 49.0333 49.272 49.9293 49.272C50.8253 49.272 51.5213 48.96 52.0173 48.336C52.5293 47.696 52.7853 46.912 52.7853 45.984V40.224C52.1613 40.016 51.4493 39.912 50.6493 39.912C49.4333 39.912 48.5453 40.352 47.9853 41.232C47.4413 42.112 47.1693 43.328 47.1693 44.88ZM60.0719 42.264C60.0719 40.824 59.9279 39.528 59.6399 38.376L61.6559 38.112L62.1119 39.312C63.4559 38.368 64.8319 37.896 66.2399 37.896C69.1519 37.896 70.6079 39.464 70.6079 42.6V51H68.0159V43.08C68.0159 40.968 67.1759 39.912 65.4959 39.912C64.5199 39.912 63.5759 40.256 62.6639 40.944V51H60.0719V42.264ZM73.3473 50.352L73.8993 48.408C75.2113 48.984 76.3393 49.272 77.2833 49.272C78.9153 49.272 79.7313 48.72 79.7313 47.616C79.7313 46.752 78.9473 46.032 77.3793 45.456C76.7713 45.232 76.3153 45.056 76.0113 44.928C75.7073 44.784 75.3313 44.568 74.8833 44.28C74.0033 43.704 73.5633 42.84 73.5633 41.688C73.5633 40.52 73.9713 39.608 74.7873 38.952C75.6193 38.28 76.7393 37.944 78.1473 37.944C79.5713 37.944 80.7953 38.184 81.8193 38.664C82.0113 38.744 82.1153 38.784 82.1313 38.784L81.6273 40.728C80.4593 40.216 79.4193 39.96 78.5073 39.96C76.9073 39.96 76.1073 40.504 76.1073 41.592C76.1073 41.912 76.1873 42.16 76.3473 42.336C76.5233 42.496 76.6593 42.616 76.7553 42.696C76.8513 42.76 77.0113 42.848 77.2353 42.96C77.4593 43.056 77.6193 43.128 77.7153 43.176C77.8273 43.208 78.0273 43.28 78.3153 43.392C78.6033 43.504 78.8913 43.616 79.1793 43.728C79.4833 43.824 79.7953 43.96 80.1153 44.136C80.4513 44.312 80.8033 44.552 81.1713 44.856C81.9073 45.464 82.2753 46.392 82.2753 47.64C82.2753 48.488 82.0273 49.192 81.5313 49.752C80.6513 50.776 79.1793 51.288 77.1153 51.288C75.7393 51.288 74.4833 50.976 73.3473 50.352ZM85.7594 56.088V41.616C85.7594 40.72 85.6154 39.64 85.3274 38.376L87.3434 38.112L87.7754 39.168C88.9594 38.32 90.1914 37.896 91.4714 37.896C93.1034 37.896 94.3834 38.496 95.3114 39.696C96.2394 40.88 96.7034 42.496 96.7034 44.544C96.7034 46.576 96.2074 48.208 95.2154 49.44C94.2234 50.672 92.8634 51.288 91.1354 51.288C90.0954 51.288 89.1674 51.072 88.3514 50.64V56.088H85.7594ZM90.8234 39.912C90.0714 39.912 89.2474 40.208 88.3514 40.8V48.624C88.9914 49.056 89.7434 49.272 90.6074 49.272C91.7914 49.272 92.6474 48.896 93.1754 48.144C93.7034 47.392 93.9674 46.16 93.9674 44.448C93.9674 42.736 93.7034 41.552 93.1754 40.896C92.6474 40.24 91.8634 39.912 90.8234 39.912ZM105.284 37.896C106.852 37.896 108.148 38.448 109.172 39.552C110.196 40.64 110.708 42.248 110.708 44.376C110.708 46.504 110.18 48.192 109.124 49.44C108.084 50.672 106.516 51.288 104.42 51.288C102.852 51.288 101.556 50.736 100.532 49.632C99.5078 48.512 98.9958 46.888 98.9958 44.76C98.9958 42.632 99.5158 40.96 100.556 39.744C101.612 38.512 103.188 37.896 105.284 37.896ZM101.732 44.784C101.732 46.384 101.996 47.536 102.524 48.24C103.068 48.928 103.876 49.272 104.948 49.272C106.02 49.272 106.788 48.856 107.252 48.024C107.732 47.192 107.972 45.976 107.972 44.376C107.972 42.76 107.7 41.616 107.156 40.944C106.628 40.256 105.892 39.912 104.948 39.912C103.748 39.912 102.908 40.32 102.428 41.136C101.964 41.952 101.732 43.168 101.732 44.784ZM114.259 42.264C114.259 40.824 114.115 39.528 113.827 38.376L115.843 38.112L116.443 39.672C117.451 38.488 118.587 37.896 119.851 37.896C120.699 37.896 121.355 38.096 121.819 38.496C122.299 38.896 122.539 39.464 122.539 40.2C122.539 40.936 122.419 41.584 122.179 42.144L120.115 41.88C120.115 41.16 120.043 40.656 119.899 40.368C119.771 40.064 119.491 39.912 119.059 39.912C118.643 39.912 118.227 40.08 117.811 40.416C117.411 40.752 117.091 41.128 116.851 41.544V51H114.259V42.264ZM126.606 35.616L128.646 35.352V38.64H132.366L132.078 40.368H128.646V46.8C128.646 47.664 128.774 48.296 129.03 48.696C129.302 49.08 129.718 49.272 130.278 49.272C130.838 49.272 131.47 49.208 132.174 49.08L132.486 50.832C131.494 51.136 130.534 51.288 129.606 51.288C128.31 51.288 127.39 50.944 126.846 50.256C126.318 49.568 126.054 48.592 126.054 47.328V40.368H124.254V38.88L126.054 38.64L126.606 35.616ZM144.245 48.264L145.133 49.896C144.861 50.152 144.285 50.448 143.405 50.784C142.525 51.12 141.581 51.288 140.573 51.288C138.781 51.288 137.333 50.744 136.229 49.656C135.141 48.568 134.597 46.936 134.597 44.76C134.597 43.56 134.789 42.504 135.173 41.592C135.557 40.664 136.053 39.944 136.661 39.432C137.909 38.408 139.213 37.896 140.573 37.896C141.949 37.896 143.037 38.248 143.837 38.952C144.653 39.64 145.061 40.488 145.061 41.496C145.061 42.824 144.429 43.912 143.165 44.76C141.901 45.592 139.877 46.008 137.093 46.008C137.093 46.744 137.397 47.472 138.005 48.192C138.629 48.912 139.541 49.272 140.741 49.272C141.957 49.272 143.125 48.936 144.245 48.264ZM142.733 41.712C142.733 41.232 142.549 40.816 142.181 40.464C141.829 40.096 141.325 39.912 140.669 39.912C139.613 39.912 138.741 40.312 138.053 41.112C137.381 41.896 137.037 42.928 137.021 44.208C140.829 44.208 142.733 43.376 142.733 41.712ZM146.988 50.352L147.54 48.408C148.852 48.984 149.98 49.272 150.924 49.272C152.556 49.272 153.372 48.72 153.372 47.616C153.372 46.752 152.588 46.032 151.02 45.456C150.412 45.232 149.956 45.056 149.652 44.928C149.348 44.784 148.972 44.568 148.524 44.28C147.644 43.704 147.204 42.84 147.204 41.688C147.204 40.52 147.612 39.608 148.428 38.952C149.26 38.28 150.38 37.944 151.788 37.944C153.212 37.944 154.436 38.184 155.46 38.664C155.652 38.744 155.756 38.784 155.772 38.784L155.268 40.728C154.1 40.216 153.06 39.96 152.148 39.96C150.548 39.96 149.748 40.504 149.748 41.592C149.748 41.912 149.828 42.16 149.988 42.336C150.164 42.496 150.3 42.616 150.396 42.696C150.492 42.76 150.652 42.848 150.876 42.96C151.1 43.056 151.26 43.128 151.356 43.176C151.468 43.208 151.668 43.28 151.956 43.392C152.244 43.504 152.532 43.616 152.82 43.728C153.124 43.824 153.436 43.96 153.756 44.136C154.092 44.312 154.444 44.552 154.812 44.856C155.548 45.464 155.916 46.392 155.916 47.64C155.916 48.488 155.668 49.192 155.172 49.752C154.292 50.776 152.82 51.288 150.756 51.288C149.38 51.288 148.124 50.976 146.988 50.352Z" fill="white"/>
<defs>
<filter id="filter0_d" x="164.161" y="1.2912" width="120.934" height="62.0172" filterUnits="userSpaceOnUse" color-interpolation-filters="sRGB">
<feFlood flood-opacity="0" result="BackgroundImageFix"/>
<feColorMatrix in="SourceAlpha" type="matrix" values="0 0 0 0 0 0 0 0 0 0 0 0 0 0 0 0 0 0 127 0"/>
<feOffset dy="4"/>
<feGaussianBlur stdDeviation="2"/>
<feColorMatrix type="matrix" values="0 0 0 0 0 0 0 0 0 0 0 0 0 0 0 0 0 0 0.25 0"/>
<feBlend mode="normal" in2="BackgroundImageFix" result="effect1_dropShadow"/>
<feBlend mode="normal" in="SourceGraphic" in2="effect1_dropShadow" result="shape"/>
</filter>
</defs>
</svg>
