<svg width="39" height="40" viewBox="0 0 39 40" fill="none" xmlns="http://www.w3.org/2000/svg">
<path d="M0 30.8507V9.75L0.58209 7.1306L1.89179 4.80224L4.07463 2.32836L6.40299 1.16418L8.73134 0.436567L26.6306 0L30.7052 0.436567L34.6343 2.32836L37.9813 5.67537L39 10.6231V30.2687L37.9813 33.6157L35.3619 36.8172L31.4328 38.8545L28.5224 39.291H10.6231L8.14925 38.8545L5.09328 37.5448L2.47388 35.653L0 30.8507Z" fill="#0228AF"/>
<path d="M3.34698 28.5223V10.7685V9.02227L4.80221 6.83943L6.54848 4.94764L10.6231 3.63794H27.0671L32.4515 4.94764L35.0709 7.42152L35.653 10.7685V28.5223L35.0709 31.2872L33.4701 33.9066L31.8694 35.2163L29.541 35.7984H11.4962L7.56713 35.2163L5.3843 33.9066L3.92907 31.2872L3.34698 28.5223Z" fill="white"/>
<path d="M27.7948 8.44036L28.3769 7.27618L29.9776 6.69409L31.4329 7.27618L32.4515 8.44036V10.1866L31.4329 11.0598L29.9776 11.4963L28.3769 11.0598L27.7948 9.45902V8.44036Z" fill="#0228AF"/>
<path d="M15.5709 10.4774L19.2089 9.60425L23.8656 10.4774L26.7761 12.6602L28.9589 15.7162L29.6865 19.6453L28.9589 23.7199L27.2127 26.3393L24.4477 28.8132L19.9365 29.8319H17.1716L14.5522 28.8132L12.0783 26.7759L10.041 24.302L9.45892 20.8095V17.7535L11.0597 14.261L13.388 11.7871L15.5709 10.4774Z" fill="#0228AF"/>
<path d="M17.0261 13.6792L19.2089 13.2427L22.2649 13.6792L24.8843 16.0076L26.194 18.918L25.7574 22.4106L24.3022 24.5934L22.2649 25.9031L19.791 26.3397L17.4627 25.9031L15.1343 24.5934L12.9515 21.3919V18.918L14.4067 15.4255L17.0261 13.6792Z" fill="white"/>
</svg>
