<svg width="216" height="205" viewBox="0 0 216 205" fill="none" xmlns="http://www.w3.org/2000/svg">
<path d="M111.405 139.5L0.5 72.5V0H133.294L164.425 17L215.5 48V204.5L111.405 139.5Z" fill="#D9D8D6"/>
<path d="M76.8688 88L83.1923 80.5L132.321 113.5L122.593 121L76.8688 88Z" fill="#FFF8FF"/>
<path d="M132.141 94.4389L131.064 94.6601L130.849 94.4389V93.7751L131.064 92.89L131.279 92.4474L131.925 92.0049H132.786V93.5538L132.141 94.4389Z" fill="#F3F5FF"/>
<path d="M84.3519 99.5281L87.1504 100.856L89.9488 102.847L91.6709 105.281L93.1777 108.6V111.255V114.353L91.6709 116.787L89.303 117.894L86.2893 116.787L83.7061 114.353L81.7687 111.255L80.2619 107.273V103.511L81.7687 100.413L84.3519 99.5281Z" fill="#3A3C2F"/>
<path d="M85.6435 103.511L86.5045 103.954L88.0114 104.617L89.7335 107.051L90.8098 109.485V112.141L89.7335 113.689L87.7961 114.132L86.074 113.468L84.7824 112.141L83.7061 110.592L82.845 108.158L82.4145 106.166L83.2755 104.396L84.1366 103.511H85.6435Z" fill="#C5C5C5"/>
<path d="M85.8588 107.936H86.7198L87.3656 108.6L87.1503 109.264L86.5046 109.485L85.8588 108.821V107.936Z" fill="#DEDEDE"/>
<path d="M78.9703 101.741V105.281V105.502L80.2619 104.839V103.511L81.7687 100.413L84.3519 99.5281L86.935 100.856L89.9487 102.847L91.2403 104.617L89.7335 101.741L86.2893 99.0855L83.4908 98.2004C82.9168 98.2742 81.7257 98.466 81.5534 98.643C81.3812 98.82 80.4771 99.4543 80.0466 99.7493C79.6878 100.339 78.9703 101.564 78.9703 101.741Z" fill="#4B1D10"/>
<path d="M91.6709 116.787L89.303 117.894L91.2404 117.672L93.393 116.787L94.8998 115.238L93.8235 114.575V111.034L93.1777 108.379V114.353L92.9625 114.575L91.6709 116.787Z" fill="#0C0912"/>
<path d="M102.649 104.396L79.6161 88.6859L75.7413 86.2519L80.2619 84.9242L85.4282 83.3753L91.8861 80.9414L96.8372 78.0648L102.649 73.6394L105.663 70.7629L108.677 67.2225L121.162 76.7372L125.683 80.7201L128.05 83.1541L130.849 86.2519L132.356 88.6859L131.71 90.456L130.849 91.7837L129.988 92.89L129.342 93.7751L124.606 98.2005L119.655 101.52L116.426 103.29L110.184 105.945L108.246 106.83H107.17L106.309 105.945H104.371L102.649 104.396Z" fill="#F8AB11"/>
<path d="M74.8803 70.5415L70.1445 71.2053L71.6513 73.1968L74.0192 76.0733L75.7413 79.8349L77.894 85.3667L82.4145 84.2603L87.3656 82.7114L91.8861 80.9413L99.6356 76.0733L108.892 67.0012L107.385 64.3459L104.371 58.3716L100.281 53.2823L94.8998 59.0354L88.0114 64.3459L81.3382 68.1075L74.8803 70.5415Z" fill="#13190B"/>
<path d="M46.8959 54.3887L39.3617 51.9548L42.5907 48.4144L46.8959 44.6528L53.3539 40.0061L59.8118 36.4658L69.2834 33.5892L72.9429 34.4743L81.1229 38.0147L87.3656 41.9975L95.1151 47.9719L100.066 53.5037L96.1914 58.1504C94.3258 59.478 90.5084 62.2218 90.164 62.5758C89.8196 62.9298 84.9977 65.8211 82.6298 67.2225L76.1718 69.8777L70.1445 71.2054L61.9644 63.0183L55.2912 58.1504L46.8959 54.3887Z" fill="#FFDF28"/>
<path d="M74.2345 74.967L71.8666 72.0904L74.2345 71.4266L78.5398 70.099L83.0603 68.3288L89.0877 64.5672L93.393 61.4694L97.9135 57.4865L100.497 54.61L103.295 57.9291L105.232 61.4694L107.6 67.2225L103.295 71.4266L97.483 76.0733L89.5182 81.1626L82.4145 83.3753L78.5398 83.8178L77.2482 81.1626L75.3108 77.1797L74.2345 74.967Z" fill="#A7CDE0"/>
<path d="M96.6219 104.396V106.166L96.1914 105.724L95.3303 104.839L94.8998 104.175L94.6845 102.626L95.3303 103.069L96.6219 104.396Z" fill="#FEBF32"/>
<path d="M103.08 119V105.724H109.753L113.413 104.396L116.642 103.069L119.87 101.077L123.099 99.0856L128.051 95.1027L131.71 90.456L132.571 88.4646L134.078 91.1199L135.154 95.5453L134.724 101.077L126.974 107.936L117.072 114.353L110.614 117.009L103.08 119Z" fill="#FBA915"/>
<path d="M105.878 107.273L104.802 108.379L105.878 107.715V108.6L105.232 110.37L104.371 109.928V110.813H105.232L106.309 110.37L106.739 109.928L107.17 109.264V108.379L106.739 107.273H106.309H105.878Z" fill="#DADBDF"/>
<path d="M104.802 108.379L105.878 107.936L106.094 108.6L105.878 109.264L105.448 110.149H104.802L104.371 109.707L104.802 108.379Z" fill="#F4F4F2"/>
<path d="M131.495 92.4474L132.571 92.0049L132.786 92.6687L132.571 93.3325L132.14 94.2176H131.495L131.064 93.7751L131.495 92.4474Z" fill="#F4F4F2"/>
<path d="M102.219 115.46V112.141V111.477L104.802 113.468L105.878 112.804L107.17 113.247L107.6 115.017L106.739 116.566L104.156 117.451L102.219 115.46Z" fill="#302F2D"/>
<path d="M105.017 114.575L105.878 113.689H106.739C106.912 113.689 106.811 114.28 106.739 114.575V115.238L105.878 116.123L105.017 115.902V114.575Z" fill="#A296A2"/>
<path d="M109.323 108.379L108.461 106.83L109.323 106.388L112.336 105.06L115.996 103.511L120.301 101.077L123.099 99.3069L126.759 96.6516L129.342 93.5538L129.773 95.5453L128.696 97.9793L124.822 101.741L119.655 105.06L111.906 108.6H110.184L109.323 108.379Z" fill="#1A2119"/>
<path d="M119.009 102.847L119.87 101.962L121.377 101.741V103.29L120.732 104.175L119.44 104.396L119.009 104.175V102.847Z" fill="#64655F"/>
<path d="M109.753 113.247L108.246 116.345H109.753L111.475 115.238L115.78 113.247L119.87 111.255L125.467 107.494L130.418 103.954L131.279 102.626V101.741L130.418 100.856H129.557L128.266 102.183L123.745 105.502L119.655 108.158L113.843 111.477L109.753 113.247Z" fill="#211D24"/>
<path d="M134.939 99.7493L132.356 101.741L131.925 101.077V99.5281L132.786 97.5366C133.073 97.0941 133.647 96.1647 133.647 95.9877C133.647 95.8107 134.508 95.6189 134.939 95.5452V99.7493Z" fill="#362D28"/>
<path d="M132.786 98.4218L133.432 97.3154H134.293V98.8643L133.432 99.5281H132.786V98.4218Z" fill="#9A9E91"/>
<path d="M132.14 94.4389L131.064 94.6601V94.8814V95.1027H131.495H132.14H132.571L133.002 94.6601L133.432 93.9963C133.504 93.775 133.647 93.2883 133.647 93.1112V92.4474L133.432 91.7836L132.786 91.3411H132.14L131.925 92.0049H132.786V92.6687V93.5538L132.14 94.4389Z" fill="#DADBDF"/>
<path d="M93.6082 114.575L103.51 119V105.502L91.348 96.4303L79.1855 87.3582L77.894 85.1455L76.1718 81.3839L73.5887 76.2946L70.3597 71.8692L66.485 66.1161L59.166 60.8056L50.5554 55.9376L39.3617 52.176L35.9175 51.7335L33.3343 51.2909L29.029 50.6271L24.5085 50.1846L18.6963 47.0868H17.4048L16.5437 55.9376L14.6063 58.5929V62.1332L16.5437 67.0012L24.7237 73.1968V72.533V68.9927L25.8001 67.0012L28.168 66.1161L31.6122 67.0012L36.1327 71.4266L39.3617 78.0648V82.4902L79.1855 105.502V101.52L80.6924 99.5281L82.845 97.9792L85.8587 98.8643L89.9487 101.52L93.6082 109.707V114.575Z" fill="#FBCD17"/>
<path d="M73.804 100.634L41.5144 80.72L40.438 76.0733L38.5007 71.8691L36.5633 68.5501L34.8412 66.3374L33.5496 62.5757L32.6885 58.3716L75.5261 85.8092L76.8177 93.5537L75.9566 100.634H73.804Z" fill="#FED42C"/>
<path d="M75.5261 86.4731L32.6885 58.1504L32.0427 56.8228L32.6885 56.159L35.2717 54.3888H40.0075L45.3891 55.0526L53.9997 59.2568L61.3186 64.346L70.3597 72.7543L73.8039 79.3925L75.5261 86.4731Z" fill="#212524"/>
<path d="M70.1445 74.0819L72.7276 83.3753L56.3676 72.3117L58.0897 63.6821L61.5339 66.1161L70.1445 74.0819Z" fill="#A2CBE1"/>
<path d="M51.2012 69.4352L33.9801 57.4866V56.1589L36.1327 55.4951H40.438L45.3891 56.1589L50.5554 58.5929L54.6454 61.2482L52.2775 67.665L51.2012 69.4352Z" fill="#A8CDDE"/>
<path d="M36.9938 83.5965C35.9175 84.0391 33.6787 84.9242 33.3343 84.9242L30.7511 83.5965L28.5985 80.9413L26.4458 77.8435L25.8 73.6393V71.2053L26.4458 68.7714L29.2443 67.4437L34.1953 69.6564L37.6396 74.7457L38.2854 79.1711L36.9938 83.5965Z" fill="#2C2D31"/>
<path d="M28.5985 72.0904L30.1053 71.2053H31.6122L33.5496 72.7542C33.9801 73.3443 34.8411 74.6129 34.8411 74.9669C34.8411 75.321 35.4152 76.147 35.7022 76.5158V78.9498V80.4987C35.4869 80.7937 35.0134 81.3838 34.8411 81.3838C34.6689 81.3838 33.9083 81.6788 33.5496 81.8263L31.6122 80.9413L30.1053 79.6136L28.5985 77.4009L27.7374 74.3031L28.5985 72.0904Z" fill="#BFBFBF"/>
<path d="M31.3969 75.8521H32.6885V76.2946V77.401H32.0427L31.3969 76.9584V75.8521Z" fill="#E7E7E7"/>
<path d="M37.209 83.5966L33.3343 84.9243L34.8411 85.5881L36.7785 85.3668L38.2854 84.2604L40.0075 82.9328L39.3617 82.4903V78.0648L37.8548 74.967L38.2854 78.5074L37.209 83.5966Z" fill="#1D1816"/>
<path d="M24.7238 68.9926V73.1968L25.5848 72.7542V71.8691L26.8764 68.5501L29.2443 67.4437L33.9801 69.4352L32.0427 67.4437L29.8901 66.7799H26.8764L24.7238 68.9926Z" fill="#46210E"/>
<path d="M32.6885 51.0697L24.7238 49.9633L26.6611 47.3081L30.1054 44.2103L34.1954 40.6699L38.5007 38.0147L43.8823 35.1381L50.3402 32.9254L54.6455 32.2616L68.6376 33.8105L60.2423 36.2445L56.1523 38.6785C54.1432 39.8586 50.0388 42.2631 49.6944 42.4401C49.2639 42.6614 44.0975 46.6442 43.8823 47.3081C43.71 47.8391 40.6533 50.4796 39.1464 51.7335H36.348L32.6885 51.0697Z" fill="#0C2426"/>
<path d="M29.4596 49.5208H26.2306L27.9527 47.3081L30.5359 45.3167L34.1954 42.2189L38.9312 38.8998L43.8822 36.0233L47.3265 34.6956L51.4165 33.5893L54.2149 33.1467H57.6591L64.5476 34.0318L59.5965 36.0233L55.7218 38.0147L50.986 40.67L46.0349 44.2103L42.8059 47.3081L38.9312 51.291L34.6259 50.1846L29.4596 49.5208Z" fill="#A7CBE5"/>
<path d="M17.8353 46.6443L24.5085 49.7421H25.1543L26.6612 47.5293L29.6749 44.6528L33.9801 41.1125L38.9312 38.0147L44.0975 35.1381L50.7707 32.7042H55.2913V32.0403L51.6318 30.0489L49.4791 28.9425L47.757 28.5L43.667 28.9425L38.5007 30.934C37.3526 31.3765 35.0134 32.3501 34.8412 32.7042C34.669 33.0582 31.3252 34.6218 29.6749 35.3594L25.8001 38.4572L21.0643 42.6614L17.8353 46.6443Z" fill="#FBDF23"/>
<path d="M184.486 145.865L177.141 164.45L168.383 151.092L163.015 140.347V132.797L165.84 124.085L170.36 116.535L175.728 110.727L184.486 108.114L189.571 112.179L192.114 122.633L184.486 145.865Z" fill="#C10F03"/>
<path d="M185.616 133.959L177.423 142.09L171.49 144.123L165.84 139.476V132.216L169.795 122.053L177.423 113.341H185.616L189.289 122.053L185.616 133.959Z" fill="#EDE3DA"/>
<path d="M179.118 105.5L186.463 109.275H179.118L173.75 112.469L168.383 118.568L163.58 130.474V143.542L176.858 165.031L170.36 162.127L155.67 135.12L157.647 125.537L161.32 117.406L167.253 109.275L173.75 105.5H179.118Z" fill="#F5BDAF"/>
<path d="M135.726 37L142.05 29.5L191.179 62.5L181.45 70L135.726 37Z" fill="#FFF8FF"/>
</svg>
