<svg width="214" height="205" viewBox="0 0 214 205" fill="none" xmlns="http://www.w3.org/2000/svg">
<path d="M21.0681 36.6846L19.2404 27.443L19.4353 26.6274L21.0341 26.0764L24.1535 29.1419C24.8863 30.4255 26.5212 33.0512 27.1988 33.2855C28.0459 33.5785 29.45 33.8432 30.2483 34.34C31.0467 34.8368 33.1517 36.0062 33.7807 36.4445C34.4097 36.8827 36.0297 38.5467 35.9323 38.9545C35.8349 39.3624 38.9077 41.0872 39.416 41.2629L41.7878 42.0831C42.4655 42.3174 44.5451 44.361 44.9559 44.9446C45.2846 45.4115 46.9 45.764 47.6666 45.8819C48.5207 46.9131 50.3307 49.0107 50.7373 49.1513L52.4315 49.7371L54.079 48.9823L56.3069 48.8696L55.8198 50.9088L57.3171 53.8548L55.2757 59.3302L56.9444 60.7902L56.5548 62.4216L58.5116 65.7473C59.665 66.2933 62.3828 67.9689 64.0262 70.3033C63.952 71.3814 64.7271 71.2079 64.7991 71.6743C64.8711 72.1408 65.2566 73.5986 65.4006 74.5314C65.5446 75.4642 65.227 77.562 65.5404 78.5534C65.8538 79.5448 66.4108 79.5166 66.9424 80.3627C67.3676 81.0396 66.9897 81.1885 66.7475 81.1784L66.504 82.198C67.0038 82.6651 68.0999 83.8095 68.4862 84.6495C68.8725 85.4895 70.0336 86.3619 70.5658 86.6931L70.9746 88.8213L72.8361 91.0102L75.786 94.0171L78.0118 95.449L79.7059 96.0348L81.1566 97.6402L81.8809 99.2152L85.2692 100.387L87.1794 102.372L91.1883 110.16L93.7995 113.05L92.8741 116.924C92.728 117.536 94.4687 119.462 95.6292 120.747L95.6293 120.747C96.7898 122.031 99.0176 121.918 99.5258 122.094C100.034 122.27 100.784 122.971 101.533 123.671C102.283 124.372 102.597 125.364 102.45 125.975C102.334 126.465 101.528 127.79 101.14 128.392C101.568 127.878 102.555 127.071 103.077 127.958L103.077 127.958C103.73 129.067 104.382 130.175 104.985 131.488C105.589 132.8 106.002 131.839 106.557 133.356C107.112 134.872 109.337 136.304 109.579 136.829C109.82 137.354 112.287 139.311 112.698 139.895C113.109 140.478 113.204 141.615 113.01 142.431C112.815 143.246 115.307 144.329 116.154 144.622C116.832 144.856 118.066 145.577 118.598 145.908C120.396 147.339 124.094 150.237 124.5 150.377C124.907 150.518 126.089 151.663 126.629 152.217L127.959 153.56L126.239 153.849L128.416 155.484L130.326 157.469L131.341 159.365L135.21 163.132L136.681 166.952L140.502 170.922L142.19 176.142C142.109 176.482 142.309 177.331 143.761 178.01L146.98 179.123C147.522 179.31 146.946 180.288 146.59 180.754C146.929 180.871 147.796 181.083 148.551 180.991C149.307 180.899 150.336 180.43 150.756 180.208L154.381 184.993C156.278 184.987 160.154 185.091 160.483 185.558C160.811 186.025 165.029 184.186 167.096 183.209C168.708 184.649 172.035 187.565 172.441 187.706C172.95 187.882 180.857 195.473 181.414 195.445C181.86 195.422 185.7 195.675 187.564 195.805L188.674 198.838L182.331 197.748L178.6 199.549L179.282 196.694L175.72 198.553L174.873 198.26C174.372 198.308 173.23 198.531 172.668 199.043C172.106 199.555 171.304 198.866 170.974 198.457L167.588 195.741L164.369 194.628L162.505 193.984L160.98 193.456C160.433 192.678 159.201 191.075 158.659 190.888C158.117 190.7 156.367 191.272 155.559 191.582L153.865 190.996L154.547 188.141L154.985 186.306L151.328 187.028L149.877 185.423L149.733 184.49L147.022 183.552L146.292 186.611L143.581 185.674L143.247 182.468L143.031 181.068L141.167 180.424L139.642 179.897L136.349 179.862L135.068 178.315L134.998 176.304L133.643 175.835L133.984 174.408L136.091 174.033L135.729 173.245L133.865 172.601L132.097 173.093L132.58 174.143L129.577 174.429L128.175 172.62L128.37 171.804C128.983 171.796 130.433 171.767 131.324 171.722C132.215 171.677 133.746 170.794 134.401 170.358L133.895 168.637C132.764 169.277 130.367 170.508 129.824 170.321C129.282 170.133 128.809 168.939 128.641 168.366L128.134 166.646L125.932 165.884L122.542 166.257L122.878 167.919L120.506 167.099L120.68 164.068L120.464 162.669L121.578 162.613L122.764 163.023L125.28 164.776L126.419 163.845L123.613 161.771L126.156 161.105L123.954 160.343L124.198 159.324L123.425 157.953L121.995 158.562L118.128 153.252L116.921 150.627L114.236 148.815L114.674 146.98L113.149 146.452L111.675 144.177L109.547 142.337L110.18 139.686L108.994 139.276L108.022 141.81L108.914 144.988L111.5 148.752L111.013 150.791L105.739 146.76L102.307 142.703L98.7044 138.588L97.2812 134.564L95.011 130.246L93.4862 129.719L91.4532 129.016L90.585 126.508L87.5354 125.454L86.8641 120.586L82.7557 114.75L79.543 109.003L76.161 103.198L72.582 99.7527L68.9586 93.4224L64.6045 90.1507L61.5613 84.4625L57.1353 80.7245L56.2225 75.3314L48.389 66.6622L41.8388 57.9953L37.9972 51.8103L34.1302 46.4995L28.3701 44.5077L25.4942 40.4226L25.9812 38.3835L21.0681 36.6846Z" fill="#C10F03"/>
<path d="M58.5039 25.398V109.56L56.8484 112.548L60.1595 115.038L62.6429 112.548V109.56L60.9873 109.062L60.1595 25.398L62.6429 23.904V20.418L60.1595 18.426L56.8484 20.418V23.904L58.5039 25.398Z" fill="#D1D6C0"/>
<path d="M72.1861 21.1837L60.6555 28.9411V46.1714L72.1861 38.2649V21.1837Z" fill="#002E98"/>
<path d="M102.314 0L72.372 21.0345V38.0411L102.314 17.0066V0Z" fill="white"/>
<path d="M66.1728 29.6124L65.4289 32.8943L63.4451 34.4607L64.8709 34.9829L64.561 38.1903L66.1728 35.3558L67.9706 36.1017L67.2886 33.4911L68.9624 30.5075L66.8547 31.9247L66.1728 29.6124Z" fill="#E2DEE0"/>
<path d="M102.376 17.1558L60.6554 45.8731L60.1595 63.4019L102.376 34.61V17.1558Z" fill="#C10F03"/>
<path d="M135.718 117.697L105.962 97.8782L106.228 68.7886L135.718 88.2882V117.697Z" fill="#6E3F1C"/>
<path d="M107.291 66.5509L106.228 68.7886L135.718 88.6079H139.172L143.688 84.4522L142.891 81.5752L115.792 63.0346H113.136H110.479L108.354 64.6329L107.291 66.5509Z" fill="#905B3B"/>
<path d="M139.172 88.2882L135.718 88.6079V117.697L144.22 111.943V87.3292L143.688 84.4522L139.172 88.2882Z" fill="#6B441D"/>
<path d="M122.434 71.9852L120.575 73.9032L121.106 74.8622L122.966 73.9032H126.154L127.482 76.1409L126.154 77.7392L128.545 78.3786L130.67 74.8622L129.608 72.9442C128.456 72.3049 125.994 71.0262 125.357 71.0262C124.719 71.0262 123.143 71.6656 122.434 71.9852Z" fill="#4F4E3C"/>
<path d="M167.355 112.527L139.421 134.646L151.12 141.828L164.013 130.912L176.905 118.559L167.355 112.527Z" fill="#ECE5DF"/>
<path d="M136.795 132.635L139.421 134.933L166.878 112.239L163.296 110.229L136.795 132.635Z" fill="#1188FF"/>
<path d="M149.688 119.708L135.363 129.188L137.512 132.061L151.12 120.57L149.688 119.708Z" fill="#FFEDF1"/>
<path d="M161.864 107.356L132.975 127.465L135.602 129.188L164.968 109.367L161.864 107.356Z" fill="#047DFA"/>
<path d="M162.341 127.752L148.494 118.272L158.283 110.229L172.369 119.996L171.653 121.145L162.341 127.752Z" fill="#8A112C"/>
</svg>
