<svg width="40" height="38" viewBox="0 0 40 38" fill="none" xmlns="http://www.w3.org/2000/svg">
<path d="M3.19626 28.4112L0 38L10.8318 35.1589L15.271 36.757L20.9533 37.2897L25.9252 36.757L31.0748 34.271L36.2243 29.6542L38.5327 25.215L39.7757 20.243L39.243 13.1402L36.2243 7.1028L31.0748 2.30841L24.8598 0H18.4673L12.4299 1.42056L5.50467 6.03738L1.7757 11.8972L0.53271 20.7757L3.19626 28.4112Z" fill="#0228AF"/>
<path d="M7.10282 28.0561L5.14955 33.7383L11.1869 31.9626L15.9813 33.7383L20.7757 34.6262L25.7477 33.7383L29.8318 31.4299L33.2056 28.5888L35.8692 23.6168L37.1122 16.3365L34.4486 10.2991L30.7196 6.39255L28.0561 4.08413L23.4393 2.66357H18.4673L13.6729 4.08413L8.87852 7.10283L5.14955 11.8972L3.90656 18.8225L5.14955 23.6168L7.10282 28.0561Z" fill="white"/>
<path d="M17.757 20.2991L15.8037 17.2804L17.4019 15.5047V14.6168L16.6916 12.6636L15.271 10H13.3178L11.7196 11.0654L10.8318 14.0841L11.7196 17.8131L14.2056 21.5421L18.1122 24.7383L23.2617 27.4019H26.6355L29.4766 25.9813L30.5421 23.3178L27.8785 21.5421L24.8598 20.8318L23.2617 23.3178L21.3084 22.785L17.757 20.2991Z" fill="#0228AF"/>
</svg>
